PathFileType	4	(X/Y/Z)	C:/Users/beibeiliu/ov580/test_trc/User3\out6_training_dense_left.trc
DataRate	CameraRate	NumFrames	NumMarkers	Units	OrigDataRate	OrigDataStartFrame	OrigNumFrames
120	120	23	19	mm	120	251	500
Frame#	Time	ThumbCMC			ThumbMCP			ThumbIP			ThumbTip			IndexMCP			IndexPIP			IndexTip			MiddleMCP			MiddlePIP			MiddleTip			RingMCP			RingPIP			RingTip			PinkyMCP			PinkyPIP			PinkyTip			BackHand1			BackHand2			BackHand3	
		X0	Y0	Z0	X1	Y1	Z1	X2	Y2	Z2	X3	Y3	Z3	X4	Y4	Z4	X5	Y5	Z5	X6	Y6	Z6	X7	Y7	Z7	X8	Y8	Z8	X9	Y9	Z9	X10	Y10	Z10	X11	Y11	Z11	X12	Y12	Z12	X13	Y13	Z13	X14	Y14	Z14	X15	Y15	Z15	X16	Y16	Z16	X17	Y17	Z17	X18	Y18	Z18	
250	2.08333	-118.039	39.1755	18.8392	-100.052	37.3529	-7.49658	-91.4951	36.1705	-35.6255	-84.7548	32.0309	-52.6132	-146.212	62.2651	-47.0936	-150.727	63.2062	-72.0182	-150.805	63.6368	-102.538	-176.454	58.6194	-48.2915	-176.811	60.9909	-75.586	-181.984	57.8743	-104.916	-188.407	44.1351	-34.9618	-200.333	43.7289	-61.5119	-202.592	38.9064	-87.8578	-200.716	25.0177	-19.1864	-211.862	20.4165	-40.9676	-219.359	15.4433	-61.3839	-179.303	46.9985	15.1761	-172.845	42.0443	43.6544	-148.365	54.8468	23.5989	
251	2.09167	-138.039	52.3437	18.2373	-124.367	52.4218	-8.12064	-116.381	53.1119	-37.8728	-112.1	51.109	-60.2666	-182.138	61.3264	-49.4336	-183.486	62.2688	-75.5298	-183.232	60.9685	-99.7317	-204.327	49.9324	-47.0663	-210.656	49.2632	-73.5785	-212.143	45.0446	-105.516	-215.591	30.2108	-37.0198	-222.372	27.6236	-61.2914	-226.266	16.8914	-88.1648	-215.38	7.74655	-18.8342	-225.311	0.362768	-40.3032	-230.047	-8.10623	-65.0513	-203.451	37.419	13.6067	-194.953	34.6542	44.77	-179.645	55.1274	22.59	
252	2.1	-163.781	54.4445	17.361	-150.796	63.1004	-14.6039	-142.269	65.1782	-39.1601	-135.411	64.0705	-61.6971	-208.275	52.8938	-45.5902	-212.971	50.4893	-76.6256	-213.341	49.4632	-101.964	-228.256	31.9998	-46.8807	-231.683	32.3396	-73.2072	-232.287	26.3363	-109.081	-228.319	10.5327	-35.762	-233.817	5.09681	-58.7623	-234.809	-7.42277	-84.8886	-224.189	-14.9129	-21.2394	-224.635	-20.7326	-45.5675	-223.187	-30.1889	-66.3483	-217.363	20.3118	16.1523	-209.458	21.5232	44.7456	-201.472	48.2774	22.8744	
253	2.10833	-184.293	55.7677	17.6664	-176.167	60.5883	-12.7136	-169.518	68.8082	-41.3536	-162.631	70.9412	-62.9981	-232.248	32.5412	-46.7556	-234.23	36.6385	-71.4828	-234.702	36.4849	-98.0926	-240.842	10.7153	-46.638	-245.535	9.95967	-71.2661	-242.823	3.10322	-104.851	-233.311	-13.2345	-38.3096	-234.9	-21.3537	-61.104	-227.793	-29.5695	-89.9052	-219.224	-32.4261	-22.8096	-214.533	-39.8099	-46.9901	-207.821	-49.0815	-65.3078	-228.354	-0.467759	14.4287	-218.983	2.53797	42.9106	-217.988	35.0694	21.1268	
254	2.11667	-208.721	42.8267	14.3827	-200.981	57.2353	-13.6416	-196.692	63.7187	-39.1779	-192.225	65.9947	-64.7681	-246.185	15.6923	-43.4629	-251.366	16.788	-71.2918	-250.94	15.3363	-99.9663	-246.258	-14.0517	-40.5145	-252.475	-16.5771	-70.4859	-248.298	-20.8291	-107.74	-230.95	-31.9402	-35.5754	-228.822	-38.5221	-65.2784	-215.182	-44.5558	-89.925	-208.504	-47.013	-23.4323	-201.415	-48.371	-45.8669	-187.699	-50.5986	-67.6049	-231.067	-18.2036	14.8856	-220.325	-12.2987	43.026	-231.715	16.6877	24.9005	
255	2.125	-224.75	29.0863	15.8936	-221.228	44.0772	-10.0839	-219.895	54.945	-37.4922	-215.77	56.9178	-62.6845	-255.919	-5.97324	-41.1535	-261.321	-7.36809	-71.6149	-261.071	-7.29839	-95.363	-249.836	-31.7492	-42.8309	-250.601	-40.9234	-68.2007	-245.214	-44.1436	-103.062	-228.101	-45.3565	-35.4379	-218.954	-54.6864	-64.2348	-204.632	-50.6521	-90.1577	-200.824	-53.9282	-26.9244	-186.875	-54.0887	-42.8882	-171.655	-48.3426	-64.7725	-230.348	-34.3146	15.5658	-222.948	-26.4331	44.5748	-240.256	-4.29931	27.6806	
256	2.13333	-238.149	19.8702	20.7685	-237.425	34.5509	-8.39188	-237.134	40.6583	-35.8577	-235.585	49.4401	-61.3009	-261.198	-21.47	-37.9823	-269.658	-22.2828	-70.4325	-267.309	-23.7256	-96.075	-245.343	-51.5937	-37.954	-249.441	-58.7042	-67.2045	-243.174	-58.3825	-100.215	-223.622	-56.7474	-38.0605	-213.46	-61.6035	-62.8644	-196.766	-51.134	-85.4585	-194.178	-57.733	-24.233	-184.745	-51.254	-44.7169	-169.734	-40.5338	-60.7396	-227.46	-47.3383	16.0256	-223.468	-38.7206	46.2955	-244.491	-20.6642	29.2226	
257	2.14167	-247.687	10.0993	23.294	-250.295	23.8491	-6.93546	-249.361	30.9455	-31.2001	-246.967	37.7146	-56.3694	-266.958	-36.8875	-39.1379	-270.208	-40.6144	-67.7682	-269.747	-38.3374	-91.4341	-248.322	-60.8146	-38.1313	-244.898	-70.5114	-70.11	-239.336	-64.6312	-101.397	-220.038	-62.858	-32.4951	-209.54	-64.7467	-61.5447	-197.21	-47.2099	-83.2331	-190.833	-57.0804	-24.0638	-180.405	-45.9333	-44.9295	-167.638	-30.5348	-59.6161	-225.366	-55.2852	15.6087	-221.166	-47.6156	48.092	-246.437	-32.9857	25.4114	
258	2.15	-252.973	-2.44471	25.0688	-255.598	12.7016	0.357635	-263.472	25.0092	-30.5773	-259.617	28.9918	-52.1232	-264.089	-48.1165	-36.0207	-270.972	-51.7108	-63.7247	-270.952	-46.4296	-89.7667	-238.993	-69.8707	-36.1411	-240.799	-74.2973	-70.4745	-226.688	-64.4631	-101.344	-215.313	-64.3267	-36.834	-206.963	-59.4234	-65.5367	-191.321	-35.0833	-82.2593	-189.841	-53.397	-27.7504	-178.382	-36.6542	-45.9183	-175.399	-16.5873	-52.9133	-219.553	-61.4743	19.0255	-220.323	-52.3649	46.6585	-245.942	-41.4173	29.0662	
259	2.15833	-258.6	-10.9057	25.8697	-265.188	4.80342	0.907205	-270.61	13.2947	-28.6461	-267.087	22.4801	-50.7543	-260.933	-56.0201	-33.9926	-273.412	-56.1331	-61.5758	-271.172	-46.3256	-88.9663	-234.789	-72.3186	-36.3818	-233.035	-76.0894	-67.0782	-223.018	-53.1727	-99.9766	-209.03	-62.5878	-37.68	-202.494	-53.6279	-62.7148	-196.779	-21.2741	-75.7045	-189.791	-48.701	-23.8131	-180.673	-26.8044	-41.4388	-187.125	-0.027979	-44.9977	-213.823	-65.1092	20.3033	-215.372	-55.5482	47.5805	-248.957	-49.4589	29.7945	
260	2.16667	-258.043	-18.6237	29.3791	-270.075	-2.96111	4.37284	-275.505	6.50285	-22.8461	-267.457	13.7941	-44.9221	-259.483	-61.2159	-34.7054	-266.33	-61.2714	-61.4816	-268.74	-42.8156	-87.4711	-232.517	-72.5157	-35.9437	-230.619	-74.0542	-68.5062	-223.547	-43.2159	-94.827	-212.061	-59.5177	-35.593	-205.833	-47.6188	-63.8466	-201.403	-14.5188	-67.2957	-188.689	-41.2967	-30.3265	-187.561	-20.8936	-40.9013	-197.661	9.06377	-33.6921	-209.328	-64.6667	18.2944	-209.366	-58.4898	46.9921	-240.232	-54.3022	31.3962	
261	2.175	-256.955	-23.8756	34.7659	-271.486	-8.45016	6.95683	-275.952	-0.184591	-23.7007	-265.295	6.51018	-45.2071	-261.408	-63.1666	-33.1928	-269.116	-60.4087	-64.7978	-262.859	-39.0856	-85.4346	-229.765	-73.912	-38.693	-225.426	-69.2712	-71.864	-222.472	-37.5019	-87.1678	-207.856	-58.9928	-36.6644	-202.004	-41.0909	-64.6047	-207.005	-9.10231	-60.4805	-190.291	-40.3517	-28.0544	-191.261	-14.3374	-37.4763	-203.656	7.9366	-20.7999	-208.238	-65.143	12.6939	-203.878	-61.5654	43.1206	-242.693	-58.3756	32.0282	
262	2.18333	-255.366	-28.0004	34.5298	-267.985	-14.8441	6.28107	-275.011	-3.28635	-17.645	-259.286	3.39322	-46.1685	-253.01	-66.4466	-35.6382	-265.115	-60.5973	-66.4644	-258.998	-34.4182	-84.0145	-225.305	-71.1097	-39.0866	-224.595	-65.448	-73.535	-220.847	-27.1679	-81.9214	-204.787	-56.6614	-40.5659	-202.25	-34.2982	-63.6832	-209.575	-6.03759	-53.2904	-186.987	-35.0376	-31.4705	-193.112	-5.88591	-32.655	-203.162	8.21751	-14.175	-207.129	-65.7963	15.5472	-199.549	-61.1792	46.4319	-233.842	-59.8289	31.3047	
263	2.19167	-256.083	-29.4595	35.1505	-270.982	-15.898	5.44319	-274.335	-4.99412	-22.116	-255.649	1.00667	-41.8806	-252.119	-66.7458	-35.6673	-259.67	-61.0959	-67.8326	-259.564	-33.6666	-79.6161	-221.356	-70.3483	-41.1286	-219.611	-59.6581	-75.4599	-220.949	-18.3955	-74.2398	-205.174	-54.5758	-41.2777	-199.909	-32.3153	-61.8951	-210.466	-3.94305	-45.5296	-187.437	-32.846	-28.9697	-196.019	-4.72587	-29.6401	-204.201	6.11436	-3.8613	-199.466	-64.1296	11.8862	-195.93	-59.3839	44.4934	-234.281	-61.7836	26.9489	
264	2.2	-249.122	-32.1032	34.6419	-267.007	-18.2118	10.9128	-272.412	-7.24934	-23.1231	-255.096	1.21422	-39.9387	-243.476	-67.0548	-36.8203	-256.2	-62.3868	-64.8772	-254.656	-31.5855	-76.3935	-214.233	-68.4933	-46.6757	-218.946	-53.3418	-74.8866	-223.021	-15.1089	-66.6072	-198.827	-50.1662	-40.8997	-202.197	-24.426	-60.3517	-210.371	-2.52362	-38.3503	-184.247	-26.6275	-31.2824	-192.334	-2.42017	-29.475	-202.496	3.21793	-3.90673	-198.549	-62.3872	11.3169	-192.866	-58.5277	40.7539	-227.392	-63.2138	29.7679	
265	2.20833	-250.194	-34.166	30.8242	-264.214	-20.7098	10.3473	-273.668	-9.41254	-17.7399	-253.874	-0.908429	-37.6218	-239.095	-63.9672	-34.9155	-250.018	-54.8637	-68.8395	-248.682	-25.7271	-69.814	-214.107	-64.1805	-45.041	-213.099	-48.304	-73.7075	-219.914	-10.7898	-58.0755	-198.748	-45.2379	-44.5648	-197.241	-17.0217	-56.5444	-207.584	-0.254324	-32.2062	-182.037	-25.8737	-30.0467	-193.235	1.58052	-25.2106	-200.574	3.32333	2.0602	-192.488	-63.0544	12.0509	-189.113	-60.0906	39.2213	-226.316	-63.9653	27.8526	
266	2.21667	-248.116	-34.7202	31.6051	-262.976	-22.6491	9.06476	-272.425	-11.1247	-16.5791	-254.195	-1.42778	-36.9625	-235.536	-62.9143	-36.5762	-246.217	-52.4968	-67.4864	-245.9	-19.9694	-60.3153	-209.021	-61.9346	-46.3477	-213.137	-41.6376	-73.1928	-218.761	-7.1984	-48.562	-196.471	-43.7538	-42.7502	-197	-14.8089	-54.6304	-205.994	1.30875	-22.0852	-182.355	-23.4602	-30.9666	-189.91	3.9022	-25.0663	-199.435	4.87541	2.19893	-191.566	-63.5677	8.94983	-184.523	-57.0799	41.0504	-222.776	-62.6904	28.8204	
267	2.225	-246.786	-35.2117	33.7976	-266.217	-23.1795	10.5809	-271.019	-11.0738	-13.0484	-257.516	0.359456	-37.5185	-235.593	-59.9619	-38.0664	-242.885	-38.676	-66.0854	-238.238	-12.0633	-45.1581	-210.672	-58.0852	-50.5801	-213.61	-35.8658	-71.0888	-220.193	-5.30915	-43.0355	-191.73	-41.3917	-41.0714	-197.38	-9.97036	-52.1135	-203.753	3.29803	-23.8038	-181.574	-24.9933	-28.9972	-188.819	2.49494	-25.6213	-196.28	7.10358	2.40635	-185.914	-62.4855	9.92842	-183.021	-57.1879	42.8406	-219.626	-61.7952	28.9152	
268	2.23333	-246.705	-37.8982	36.7502	-263.28	-26.1321	12.9074	-275.245	-13.4885	-15.3761	-260.999	-0.845215	-32.6162	-237.369	-53.1381	-44.131	-241.266	-30.6683	-63.8605	-237.408	-7.96645	-33.5193	-209.63	-51.8037	-50.3825	-213.012	-22.3878	-67.0023	-218.628	-1.78502	-38.0239	-190.948	-37.3186	-41.9625	-197.249	-8.77297	-50.5253	-203.476	4.21327	-23.2425	-176.069	-21.7433	-29.1721	-188.055	2.86509	-25.0693	-196.396	3.99976	5.62116	-186.158	-62.9139	10.0085	-184.594	-59.671	43.4104	-217.574	-64.4488	24.7715	
269	2.24167	-248.813	-39.5572	40.4206	-268.637	-28.0076	14.4241	-275.104	-15.7779	-10.2397	-260.638	-0.984851	-34.4325	-235.709	-47.4122	-40.415	-238.954	-19.4277	-58.3021	-239.938	-6.21929	-26.3407	-209.612	-47.0419	-46.7339	-214.539	-19.2801	-64.5623	-217.743	1.00667	-30.3344	-196.557	-35.4561	-43.114	-199.061	-3.47372	-47.6353	-203.514	5.57227	-14.3996	-177.4	-23.124	-26.4387	-187.264	4.4609	-23.2001	-194.47	7.6517	4.06949	-188.122	-60.5726	10.9997	-187.749	-62.9545	41.6258	-222.279	-63.2405	29.2237	
270	2.25	-244.096	-40.6333	39.3094	-268.941	-30.3397	15.2969	-277.769	-17.7827	-9.93674	-265.756	-3.51965	-30.0619	-236.361	-42.9826	-41.3836	-238.29	-11.8317	-51.8835	-239.535	-3.82748	-19.2788	-215.308	-41.581	-49.7743	-217.348	-12.1699	-60.3019	-220.062	0.767292	-19.5643	-197.309	-33.9101	-40.9121	-196.577	-3.74214	-47.5598	-208.043	5.42626	-12.3177	-179.148	-21.9898	-24.7493	-189.656	3.6818	-23.9367	-197.367	9.27849	9.63147	-188.752	-60.7411	9.97523	-186.254	-60.83	41.2337	-220.274	-65.7629	27.7512	
271	2.25833	-246.87	-43.0483	39.8114	-270.316	-33.044	16.4424	-279.64	-20.773	-7.74659	-264.269	-7.03373	-26.4331	-239.167	-38.2361	-41.5724	-244.307	-7.26596	-44.4062	-239.306	-5.86781	-9.9114	-214.913	-37.0684	-48.8802	-223.377	-8.151	-55.9844	-223.755	2.68059	-17.6145	-198.221	-31.8008	-37.2577	-203.812	-0.322896	-43.2189	-207.302	6.27931	-10.5216	-183.196	-18.8413	-23.6467	-191.969	9.36505	-17.2035	-200.227	6.84206	12.2981	-187.731	-59.9156	7.48666	-187.086	-62.7012	41.3467	-220.479	-63.7302	26.1516	
272	2.26667	-248.481	-45.1462	43.5832	-267.379	-36.6315	21.2989	-279.874	-23.9577	-9.53447	-271.431	-9.64189	-24.1066	-236.048	-37.7651	-37.3489	-245.969	-7.66079	-41.7449	-240.918	-5.60683	-8.50818	-216.381	-34.5521	-46.4772	-222.32	-1.96988	-46.9827	-226.428	0.229416	-11.04	-200.593	-27.1599	-38.4097	-206.49	0.646638	-40.9758	-213.096	4.98188	-6.32406	-182.36	-17.9784	-21.7552	-193.885	9.72618	-16.6362	-200.316	10.9462	10.7565	-187.176	-59.9025	12.5793	-187.87	-63.2329	43.8213	-221.189	-64.8234	29.3651	
